# xmcd
# 
# Track frame offsets:
#     150
#     12744
#     30211
#     42857
#     55995
#     70753
#     83804
#     98420
#     113702
#     128485
#     140839
#     153161
#     164258
#     176733
#     187744
# 
# Disc length: 2746
# 
# Revision: 0
# Processed by: cddbd v1.5.2PL0 Copyright (c) Steve Scherf et al.
# Submitted via: fre:ac v1.0.27
# 
DISCID=b50ab80f
DTITLE=Various Artist - Best of Country - Disc 2
DYEAR=2006
DGENRE=Country
TTITLE0=Freddy Fender - Wasted Days and Wasted Nights
TTITLE1=Doug Stone - Too Busy Being in Love
TTITLE2=Holly Dunn - You Really Had Me Going
TTITLE3=Jack Greene - Statue of a Fool
TTITLE4=Mickey Gilley - Stand By Me
TTITLE5=Exile - It'll Be Me
TTITLE6=Janie Fricke - Let's Stop Talking About It
TTITLE7=T.G. Sheppard - Slow Burn
TTITLE8=JeannePruitt - Satin Sheets
TTITLE9=Porter Wagoner - Satisfied Mind
TTITLE10=Johnny Paycheck - Take This Job and Shove It
TTITLE11=Mickey Gilley - That's All That Matters To Me
TTITLE12=Faron Young - It's Four in the Morning
TTITLE13=Janie Fricke - Don't Worry Bout Me Baby
TTITLE14=Freddy Fender - Secret Love
EXTD=
EXTT0=
EXTT1=
EXTT2=
EXTT3=
EXTT4=
EXTT5=
EXTT6=
EXTT7=
EXTT8=
EXTT9=
EXTT10=
EXTT11=
EXTT12=
EXTT13=
EXTT14=
PLAYORDER=
